<svg width="191" height="77" viewBox="0 0 191 77" fill="none" xmlns="http://www.w3.org/2000/svg">
<path d="M0 57.4688L11.0408 76.1533L57.8465 52.3731L47.8437 33.3111L0 57.4688Z" fill="black"/>
<path opacity="0.81" d="M47.8435 33.3111C51.1463 39.6336 54.5435 46.0505 57.8463 52.3731L45.1068 76.4364L34.7266 58.035C39.0674 49.8252 43.4083 41.5209 47.8435 33.3111Z" fill="#F81111"/>
<path opacity="0.81" d="M30.2915 0L0 57.469L11.0408 76.1535L40.5775 19.4394L30.2915 0Z" fill="#F81111"/>
<path d="M79.4568 43.7857L80.2117 45.9561L76.9089 51.9956H65.9624L83.2314 19.1561L100.5 51.9956H89.6483L86.4399 46.2392L87.1004 43.7857L83.3258 35.2928L79.4568 43.7857ZM75.2103 41.2378H91.4413V48.1266H75.2103V41.2378Z" fill="black"/>
<path d="M111.069 44.2576C111.447 44.8238 112.013 45.2956 112.674 45.5787C113.334 45.8618 114.089 46.0505 114.844 46.0505C115.505 46.0505 116.165 45.9562 116.731 45.7674C117.392 45.5787 117.958 45.2956 118.524 44.9181C119.091 44.5407 119.657 44.0688 120.034 43.4083V51.1463C119.374 51.5238 118.524 51.8069 117.675 52.09C116.826 52.3731 115.505 52.4674 113.9 52.4674C111.541 52.4674 109.371 52.09 107.484 51.2407C105.596 50.3914 104.181 49.1646 103.048 47.6548C102.01 46.0505 101.444 44.2576 101.444 42.0871C101.444 39.9167 102.01 38.0294 103.048 36.4252C104.086 34.821 105.596 33.6886 107.484 32.8393C109.371 31.99 111.447 31.6125 113.9 31.6125C115.505 31.6125 116.731 31.7069 117.675 31.99C118.524 32.2731 119.374 32.5562 120.034 32.8393V40.5773C119.562 39.9167 119.091 39.4449 118.43 39.0674C117.769 38.69 117.109 38.4069 116.543 38.3125C115.882 38.1238 115.316 38.0294 114.844 38.0294C114.089 38.0294 113.334 38.2181 112.674 38.5956C112.013 38.9731 111.447 39.4449 111.069 40.0111C110.692 40.5773 110.503 41.3322 110.503 42.0871C110.409 42.8421 110.598 43.597 111.069 44.2576Z" fill="black"/>
<path d="M138.058 31.8956V38.69H122.488V31.8956H138.058ZM134.378 32.8393V52.09H126.262V32.8393H134.378Z" fill="black"/>
<path d="M140.512 36.3308C141.55 34.7266 142.965 33.4998 144.853 32.6505C146.646 31.8012 148.816 31.4238 151.081 31.4238C153.44 31.4238 155.516 31.8012 157.309 32.6505C159.102 33.4998 160.612 34.7266 161.65 36.3308C162.688 37.935 163.254 39.8224 163.254 41.9928C163.254 44.1632 162.688 46.0505 161.65 47.5604C160.612 49.1646 159.196 50.3914 157.309 51.1463C155.516 51.9956 153.346 52.3731 151.081 52.3731C148.722 52.3731 146.646 51.9956 144.853 51.1463C143.06 50.297 141.55 49.0702 140.512 47.5604C139.474 45.9562 138.907 44.1632 138.907 41.9928C139.002 39.8224 139.474 37.935 140.512 36.3308ZM148.25 44.0688C148.533 44.635 149.005 45.0125 149.476 45.2956C149.948 45.5787 150.515 45.6731 151.081 45.6731C151.647 45.6731 152.213 45.5787 152.685 45.2956C153.157 45.0125 153.629 44.635 153.912 44.0688C154.195 43.5026 154.384 42.8421 154.384 41.9928C154.384 41.1435 154.195 40.4829 153.912 39.9167C153.629 39.3505 153.157 38.9731 152.685 38.69C152.213 38.4069 151.647 38.2181 151.081 38.2181C150.515 38.2181 149.948 38.4069 149.476 38.69C149.005 38.9731 148.533 39.4449 148.25 39.9167C147.967 40.4829 147.778 41.1435 147.778 41.9928C147.778 42.8421 147.967 43.5026 148.25 44.0688Z" fill="black"/>
<path d="M174.955 31.8956V51.9956H166.84V31.8956H174.955ZM168.916 38.5012H185.902V44.4463H168.916V38.5012ZM190.714 31.8956V51.9956H182.599V31.8956H190.714Z" fill="black"/>
<path d="M66.7173 70.5857L66.8117 67.1885L76.437 59.6392L76.3426 63.0364L66.7173 70.5857ZM69.737 67.6604L66.7173 70.5857V60.2998H69.737V67.6604ZM76.437 69.8308H73.4173V62.4702L76.437 59.5449V69.8308Z" fill="black"/>
<path d="M81.9103 60.2998V69.8308H78.8906V60.2998H81.9103ZM79.8343 63.697H87.5723V66.0561H79.8343V63.697ZM89.1765 60.2998V69.8308H86.1568V60.2998H89.1765Z" fill="black"/>
<path d="M98.6129 64.2632L93.989 69.8308H90.4031L94.9326 64.2632L90.8749 60.2055H94.4608L98.6129 64.2632ZM100.972 69.8308H97.9524V60.2998H100.972V69.8308ZM108.238 60.2998L104.181 64.3576L108.71 69.9252H105.124L100.595 64.3576L104.747 60.3942H108.238V60.2998Z" fill="black"/>
<path d="M109.937 70.5857L110.031 67.1885L119.657 59.6393L119.562 63.0364L109.937 70.5857ZM112.957 67.6604L109.937 70.5857V60.2998H112.957V67.6604ZM119.562 69.8308H116.543V62.4702L119.562 59.5449V69.8308Z" fill="black"/>
<path d="M125.13 60.2998V69.8308H122.11V60.2998H125.13ZM123.054 63.697H130.792V66.0561H123.054V63.697ZM132.396 60.2998V69.8308H129.376V60.2998H132.396Z" fill="black"/>
<path d="M134.85 70.5857L134.944 67.1885L144.569 59.6393L144.475 63.0364L134.85 70.5857ZM137.869 67.6604L134.85 70.5857V60.2998H137.869V67.6604ZM144.569 69.8308H141.55V62.4702L144.569 59.5449V69.8308Z" fill="black"/>
<path d="M147.117 74.4547V60.2998H150.231V74.4547H147.117ZM157.309 67.8491C156.837 68.604 156.271 69.1702 155.61 69.5477C154.95 69.9252 154.195 70.1139 153.44 70.1139C152.59 70.1139 151.93 69.9252 151.269 69.4533C150.703 69.0759 150.231 68.4153 149.854 67.6604C149.571 66.9054 149.382 65.9618 149.382 65.0181C149.382 63.9801 149.571 63.0364 149.854 62.2815C150.137 61.5266 150.609 60.9604 151.269 60.4885C151.836 60.1111 152.59 59.828 153.44 59.828C154.195 59.828 154.95 60.0167 155.61 60.3942C156.271 60.7716 156.837 61.3378 157.309 62.0928C157.781 62.8477 157.969 63.7914 157.969 64.9238C157.969 66.1505 157.781 67.0942 157.309 67.8491ZM154.383 63.7914C154.195 63.4139 153.912 63.2252 153.534 63.0364C153.157 62.8477 152.779 62.7533 152.402 62.7533C152.024 62.7533 151.741 62.8477 151.364 63.0364C150.986 63.2252 150.703 63.5083 150.514 63.7914C150.326 64.1688 150.137 64.5463 150.137 65.1125C150.137 65.6787 150.231 66.0562 150.514 66.4336C150.703 66.8111 150.986 66.9998 151.364 67.1885C151.741 67.3773 152.024 67.4716 152.402 67.4716C152.779 67.4716 153.157 67.3773 153.534 67.1885C153.912 66.9998 154.195 66.7167 154.383 66.4336C154.572 66.0562 154.666 65.6787 154.666 65.2069C154.666 64.5463 154.572 64.1688 154.383 63.7914Z" fill="black"/>
<path d="M159.951 70.5857L160.046 67.1885L169.671 59.6393L169.577 63.0364L159.951 70.5857ZM162.971 67.6604L159.951 70.5857V60.2998H162.971V67.6604ZM169.671 69.8308H166.651V62.4702L169.671 59.5449V69.8308Z" fill="black"/>
<path d="M175.144 60.2998V69.8308H172.124V60.2998H175.144ZM173.068 63.697H180.806V66.0561H173.068V63.697ZM182.41 60.2998V69.8308H179.39V60.2998H182.41Z" fill="black"/>
<path d="M190.998 60.2998V62.9421H187.978V69.8308H184.864V60.2998H190.998Z" fill="black"/>
<path d="M79.4568 43.7857L80.2117 45.9561L76.9089 51.9956H65.9624L83.2314 19.1561L100.5 51.9956H89.6483L86.4399 46.2392L87.1004 43.7857L83.3258 35.2928L79.4568 43.7857ZM75.2103 41.2378H91.4413V48.1266H75.2103V41.2378Z" fill="black"/>
<path d="M111.069 44.2576C111.447 44.8238 112.013 45.2956 112.674 45.5787C113.334 45.8618 114.089 46.0505 114.844 46.0505C115.505 46.0505 116.165 45.9562 116.731 45.7674C117.392 45.5787 117.958 45.2956 118.524 44.9181C119.091 44.5407 119.657 44.0688 120.034 43.4083V51.1463C119.374 51.5238 118.524 51.8069 117.675 52.09C116.826 52.3731 115.505 52.4674 113.9 52.4674C111.541 52.4674 109.371 52.09 107.484 51.2407C105.596 50.3914 104.181 49.1646 103.048 47.6548C102.01 46.0505 101.444 44.2576 101.444 42.0871C101.444 39.9167 102.01 38.0294 103.048 36.4252C104.086 34.821 105.596 33.6886 107.484 32.8393C109.371 31.99 111.447 31.6125 113.9 31.6125C115.505 31.6125 116.731 31.7069 117.675 31.99C118.524 32.2731 119.374 32.5562 120.034 32.8393V40.5773C119.562 39.9167 119.091 39.4449 118.43 39.0674C117.769 38.69 117.109 38.4069 116.543 38.3125C115.882 38.1238 115.316 38.0294 114.844 38.0294C114.089 38.0294 113.334 38.2181 112.674 38.5956C112.013 38.9731 111.447 39.4449 111.069 40.0111C110.692 40.5773 110.503 41.3322 110.503 42.0871C110.409 42.8421 110.598 43.597 111.069 44.2576Z" fill="black"/>
<path d="M138.058 31.8956V38.69H122.488V31.8956H138.058ZM134.378 32.8393V52.09H126.262V32.8393H134.378Z" fill="black"/>
<path d="M140.512 36.3308C141.55 34.7266 142.965 33.4998 144.853 32.6505C146.646 31.8012 148.816 31.4238 151.081 31.4238C153.44 31.4238 155.516 31.8012 157.309 32.6505C159.102 33.4998 160.612 34.7266 161.65 36.3308C162.688 37.935 163.254 39.8224 163.254 41.9928C163.254 44.1632 162.688 46.0505 161.65 47.5604C160.612 49.1646 159.196 50.3914 157.309 51.1463C155.516 51.9956 153.346 52.3731 151.081 52.3731C148.722 52.3731 146.646 51.9956 144.853 51.1463C143.06 50.297 141.55 49.0702 140.512 47.5604C139.474 45.9562 138.907 44.1632 138.907 41.9928C139.002 39.8224 139.474 37.935 140.512 36.3308ZM148.25 44.0688C148.533 44.635 149.005 45.0125 149.476 45.2956C149.948 45.5787 150.515 45.6731 151.081 45.6731C151.647 45.6731 152.213 45.5787 152.685 45.2956C153.157 45.0125 153.629 44.635 153.912 44.0688C154.195 43.5026 154.384 42.8421 154.384 41.9928C154.384 41.1435 154.195 40.4829 153.912 39.9167C153.629 39.3505 153.157 38.9731 152.685 38.69C152.213 38.4069 151.647 38.2181 151.081 38.2181C150.515 38.2181 149.948 38.4069 149.476 38.69C149.005 38.9731 148.533 39.4449 148.25 39.9167C147.967 40.4829 147.778 41.1435 147.778 41.9928C147.778 42.8421 147.967 43.5026 148.25 44.0688Z" fill="black"/>
<path d="M174.955 31.8956V51.9956H166.84V31.8956H174.955ZM168.916 38.5012H185.902V44.4463H168.916V38.5012ZM190.714 31.8956V51.9956H182.599V31.8956H190.714Z" fill="black"/>
<path d="M66.7173 70.5857L66.8117 67.1885L76.437 59.6392L76.3426 63.0364L66.7173 70.5857ZM69.737 67.6604L66.7173 70.5857V60.2998H69.737V67.6604ZM76.437 69.8308H73.4173V62.4702L76.437 59.5449V69.8308Z" fill="black"/>
<path d="M81.9103 60.2998V69.8308H78.8906V60.2998H81.9103ZM79.8343 63.697H87.5723V66.0561H79.8343V63.697ZM89.1765 60.2998V69.8308H86.1568V60.2998H89.1765Z" fill="black"/>
<path d="M98.6129 64.2632L93.989 69.8308H90.4031L94.9326 64.2632L90.8749 60.2055H94.4608L98.6129 64.2632ZM100.972 69.8308H97.9524V60.2998H100.972V69.8308ZM108.238 60.2998L104.181 64.3576L108.71 69.9252H105.124L100.595 64.3576L104.747 60.3942H108.238V60.2998Z" fill="black"/>
<path d="M109.937 70.5857L110.031 67.1885L119.657 59.6393L119.562 63.0364L109.937 70.5857ZM112.957 67.6604L109.937 70.5857V60.2998H112.957V67.6604ZM119.562 69.8308H116.543V62.4702L119.562 59.5449V69.8308Z" fill="black"/>
<path d="M125.13 60.2998V69.8308H122.11V60.2998H125.13ZM123.054 63.697H130.792V66.0561H123.054V63.697ZM132.396 60.2998V69.8308H129.376V60.2998H132.396Z" fill="black"/>
<path d="M134.85 70.5857L134.944 67.1885L144.569 59.6393L144.475 63.0364L134.85 70.5857ZM137.869 67.6604L134.85 70.5857V60.2998H137.869V67.6604ZM144.569 69.8308H141.55V62.4702L144.569 59.5449V69.8308Z" fill="black"/>
<path d="M147.117 74.4547V60.2998H150.231V74.4547H147.117ZM157.309 67.8491C156.837 68.604 156.271 69.1702 155.61 69.5477C154.95 69.9252 154.195 70.1139 153.44 70.1139C152.59 70.1139 151.93 69.9252 151.269 69.4533C150.703 69.0759 150.231 68.4153 149.854 67.6604C149.571 66.9054 149.382 65.9618 149.382 65.0181C149.382 63.9801 149.571 63.0364 149.854 62.2815C150.137 61.5266 150.609 60.9604 151.269 60.4885C151.836 60.1111 152.59 59.828 153.44 59.828C154.195 59.828 154.95 60.0167 155.61 60.3942C156.271 60.7716 156.837 61.3378 157.309 62.0928C157.781 62.8477 157.969 63.7914 157.969 64.9238C157.969 66.1505 157.781 67.0942 157.309 67.8491ZM154.383 63.7914C154.195 63.4139 153.912 63.2252 153.534 63.0364C153.157 62.8477 152.779 62.7533 152.402 62.7533C152.024 62.7533 151.741 62.8477 151.364 63.0364C150.986 63.2252 150.703 63.5083 150.514 63.7914C150.326 64.1688 150.137 64.5463 150.137 65.1125C150.137 65.6787 150.231 66.0562 150.514 66.4336C150.703 66.8111 150.986 66.9998 151.364 67.1885C151.741 67.3773 152.024 67.4716 152.402 67.4716C152.779 67.4716 153.157 67.3773 153.534 67.1885C153.912 66.9998 154.195 66.7167 154.383 66.4336C154.572 66.0562 154.666 65.6787 154.666 65.2069C154.666 64.5463 154.572 64.1688 154.383 63.7914Z" fill="black"/>
<path d="M159.951 70.5857L160.046 67.1885L169.671 59.6393L169.577 63.0364L159.951 70.5857ZM162.971 67.6604L159.951 70.5857V60.2998H162.971V67.6604ZM169.671 69.8308H166.651V62.4702L169.671 59.5449V69.8308Z" fill="black"/>
<path d="M175.144 60.2998V69.8308H172.124V60.2998H175.144ZM173.068 63.697H180.806V66.0561H173.068V63.697ZM182.41 60.2998V69.8308H179.39V60.2998H182.41Z" fill="black"/>
<path d="M190.998 60.2998V62.9421H187.978V69.8308H184.864V60.2998H190.998Z" fill="black"/>
<path d="M79.4568 43.7857L80.2117 45.9561L76.9089 51.9956H65.9624L83.2314 19.1561L100.5 51.9956H89.6483L86.4399 46.2392L87.1004 43.7857L83.3258 35.2928L79.4568 43.7857ZM75.2103 41.2378H91.4413V48.1266H75.2103V41.2378Z" fill="black"/>
<path d="M111.069 44.2576C111.447 44.8238 112.013 45.2956 112.674 45.5787C113.334 45.8618 114.089 46.0505 114.844 46.0505C115.505 46.0505 116.165 45.9562 116.731 45.7674C117.392 45.5787 117.958 45.2956 118.524 44.9181C119.091 44.5407 119.657 44.0688 120.034 43.4083V51.1463C119.374 51.5238 118.524 51.8069 117.675 52.09C116.826 52.3731 115.505 52.4674 113.9 52.4674C111.541 52.4674 109.371 52.09 107.484 51.2407C105.596 50.3914 104.181 49.1646 103.048 47.6548C102.01 46.0505 101.444 44.2576 101.444 42.0871C101.444 39.9167 102.01 38.0294 103.048 36.4252C104.086 34.821 105.596 33.6886 107.484 32.8393C109.371 31.99 111.447 31.6125 113.9 31.6125C115.505 31.6125 116.731 31.7069 117.675 31.99C118.524 32.2731 119.374 32.5562 120.034 32.8393V40.5773C119.562 39.9167 119.091 39.4449 118.43 39.0674C117.769 38.69 117.109 38.4069 116.543 38.3125C115.882 38.1238 115.316 38.0294 114.844 38.0294C114.089 38.0294 113.334 38.2181 112.674 38.5956C112.013 38.9731 111.447 39.4449 111.069 40.0111C110.692 40.5773 110.503 41.3322 110.503 42.0871C110.409 42.8421 110.598 43.597 111.069 44.2576Z" fill="black"/>
<path d="M138.058 31.8956V38.69H122.488V31.8956H138.058ZM134.378 32.8393V52.09H126.262V32.8393H134.378Z" fill="black"/>
<path d="M140.512 36.3308C141.55 34.7266 142.965 33.4998 144.853 32.6505C146.646 31.8012 148.816 31.4238 151.081 31.4238C153.44 31.4238 155.516 31.8012 157.309 32.6505C159.102 33.4998 160.612 34.7266 161.65 36.3308C162.688 37.935 163.254 39.8224 163.254 41.9928C163.254 44.1632 162.688 46.0505 161.65 47.5604C160.612 49.1646 159.196 50.3914 157.309 51.1463C155.516 51.9956 153.346 52.3731 151.081 52.3731C148.722 52.3731 146.646 51.9956 144.853 51.1463C143.06 50.297 141.55 49.0702 140.512 47.5604C139.474 45.9562 138.907 44.1632 138.907 41.9928C139.002 39.8224 139.474 37.935 140.512 36.3308ZM148.25 44.0688C148.533 44.635 149.005 45.0125 149.476 45.2956C149.948 45.5787 150.515 45.6731 151.081 45.6731C151.647 45.6731 152.213 45.5787 152.685 45.2956C153.157 45.0125 153.629 44.635 153.912 44.0688C154.195 43.5026 154.384 42.8421 154.384 41.9928C154.384 41.1435 154.195 40.4829 153.912 39.9167C153.629 39.3505 153.157 38.9731 152.685 38.69C152.213 38.4069 151.647 38.2181 151.081 38.2181C150.515 38.2181 149.948 38.4069 149.476 38.69C149.005 38.9731 148.533 39.4449 148.25 39.9167C147.967 40.4829 147.778 41.1435 147.778 41.9928C147.778 42.8421 147.967 43.5026 148.25 44.0688Z" fill="black"/>
<path d="M174.955 31.8956V51.9956H166.84V31.8956H174.955ZM168.916 38.5012H185.902V44.4463H168.916V38.5012ZM190.714 31.8956V51.9956H182.599V31.8956H190.714Z" fill="black"/>
<path d="M66.7173 70.5857L66.8117 67.1885L76.437 59.6392L76.3426 63.0364L66.7173 70.5857ZM69.737 67.6604L66.7173 70.5857V60.2998H69.737V67.6604ZM76.437 69.8308H73.4173V62.4702L76.437 59.5449V69.8308Z" fill="black"/>
<path d="M81.9103 60.2998V69.8308H78.8906V60.2998H81.9103ZM79.8343 63.697H87.5723V66.0561H79.8343V63.697ZM89.1765 60.2998V69.8308H86.1568V60.2998H89.1765Z" fill="black"/>
<path d="M98.6129 64.2632L93.989 69.8308H90.4031L94.9326 64.2632L90.8749 60.2055H94.4608L98.6129 64.2632ZM100.972 69.8308H97.9524V60.2998H100.972V69.8308ZM108.238 60.2998L104.181 64.3576L108.71 69.9252H105.124L100.595 64.3576L104.747 60.3942H108.238V60.2998Z" fill="black"/>
<path d="M109.937 70.5857L110.031 67.1885L119.657 59.6393L119.562 63.0364L109.937 70.5857ZM112.957 67.6604L109.937 70.5857V60.2998H112.957V67.6604ZM119.562 69.8308H116.543V62.4702L119.562 59.5449V69.8308Z" fill="black"/>
<path d="M125.13 60.2998V69.8308H122.11V60.2998H125.13ZM123.054 63.697H130.792V66.0561H123.054V63.697ZM132.396 60.2998V69.8308H129.376V60.2998H132.396Z" fill="black"/>
<path d="M134.85 70.5857L134.944 67.1885L144.569 59.6393L144.475 63.0364L134.85 70.5857ZM137.869 67.6604L134.85 70.5857V60.2998H137.869V67.6604ZM144.569 69.8308H141.55V62.4702L144.569 59.5449V69.8308Z" fill="black"/>
<path d="M147.117 74.4547V60.2998H150.231V74.4547H147.117ZM157.309 67.8491C156.837 68.604 156.271 69.1702 155.61 69.5477C154.95 69.9252 154.195 70.1139 153.44 70.1139C152.59 70.1139 151.93 69.9252 151.269 69.4533C150.703 69.0759 150.231 68.4153 149.854 67.6604C149.571 66.9054 149.382 65.9618 149.382 65.0181C149.382 63.9801 149.571 63.0364 149.854 62.2815C150.137 61.5266 150.609 60.9604 151.269 60.4885C151.836 60.1111 152.59 59.828 153.44 59.828C154.195 59.828 154.95 60.0167 155.61 60.3942C156.271 60.7716 156.837 61.3378 157.309 62.0928C157.781 62.8477 157.969 63.7914 157.969 64.9238C157.969 66.1505 157.781 67.0942 157.309 67.8491ZM154.383 63.7914C154.195 63.4139 153.912 63.2252 153.534 63.0364C153.157 62.8477 152.779 62.7533 152.402 62.7533C152.024 62.7533 151.741 62.8477 151.364 63.0364C150.986 63.2252 150.703 63.5083 150.514 63.7914C150.326 64.1688 150.137 64.5463 150.137 65.1125C150.137 65.6787 150.231 66.0562 150.514 66.4336C150.703 66.8111 150.986 66.9998 151.364 67.1885C151.741 67.3773 152.024 67.4716 152.402 67.4716C152.779 67.4716 153.157 67.3773 153.534 67.1885C153.912 66.9998 154.195 66.7167 154.383 66.4336C154.572 66.0562 154.666 65.6787 154.666 65.2069C154.666 64.5463 154.572 64.1688 154.383 63.7914Z" fill="black"/>
<path d="M159.951 70.5857L160.046 67.1885L169.671 59.6393L169.577 63.0364L159.951 70.5857ZM162.971 67.6604L159.951 70.5857V60.2998H162.971V67.6604ZM169.671 69.8308H166.651V62.4702L169.671 59.5449V69.8308Z" fill="black"/>
<path d="M175.144 60.2998V69.8308H172.124V60.2998H175.144ZM173.068 63.697H180.806V66.0561H173.068V63.697ZM182.41 60.2998V69.8308H179.39V60.2998H182.41Z" fill="black"/>
<path d="M190.998 60.2998V62.9421H187.978V69.8308H184.864V60.2998H190.998Z" fill="black"/>
</svg>
